<svg width="222" height="74" viewBox="0 0 222 74" fill="none" xmlns="http://www.w3.org/2000/svg">
<path d="M0.458008 41.9717H1.59277L4.63477 48.8008L7.41699 41.9443H8.51758L4.70312 50.9814C4.34766 51.8291 3.71647 52.2529 2.80957 52.2529C2.44499 52.2529 2.10091 52.1777 1.77734 52.0273C1.45378 51.8815 1.04362 51.5329 0.546875 50.9814L1.27832 50.3799C1.78418 50.8766 2.12142 51.1592 2.29004 51.2275C2.45866 51.2959 2.62956 51.3301 2.80273 51.3301C3.06706 51.3301 3.29492 51.2594 3.48633 51.1182C3.68229 50.9769 3.89648 50.6237 4.12891 50.0586L0.458008 41.9717ZM13.8663 48.6436H12.1846C11.4236 48.6436 10.8585 48.4476 10.4893 48.0557C10.1248 47.6637 9.94246 47.1191 9.94246 46.4219V44.5625H10.879V45.9092C10.879 46.7751 11.002 47.3128 11.2481 47.5225C11.4942 47.7275 11.8998 47.8301 12.4649 47.8301H13.8663V44.5625H14.8165V52H13.8663V48.6436ZM24.7795 44.5625V52H23.8361V50.7217C23.4351 51.2093 22.9839 51.5762 22.4826 51.8223C21.9858 52.0684 21.4412 52.1914 20.8488 52.1914C19.7961 52.1914 18.896 51.8109 18.1486 51.0498C17.4058 50.2842 17.0343 49.3545 17.0343 48.2607C17.0343 47.1898 17.4103 46.2738 18.1623 45.5127C18.9142 44.7516 19.8188 44.3711 20.8761 44.3711C21.4868 44.3711 22.0382 44.501 22.5304 44.7607C23.0272 45.0205 23.4624 45.4102 23.8361 45.9297V44.5625H24.7795ZM20.9513 45.2939C20.4181 45.2939 19.9259 45.4261 19.4748 45.6904C19.0236 45.9502 18.6636 46.3171 18.3947 46.791C18.1304 47.265 17.9982 47.7663 17.9982 48.2949C17.9982 48.819 18.1326 49.3203 18.4015 49.7988C18.6704 50.2773 19.0304 50.651 19.4816 50.9199C19.9373 51.1842 20.425 51.3164 20.9445 51.3164C21.4686 51.3164 21.9653 51.1842 22.4347 50.9199C22.9041 50.6556 23.2642 50.2979 23.5148 49.8467C23.77 49.3955 23.8976 48.8874 23.8976 48.3223C23.8976 47.4609 23.6128 46.7409 23.0431 46.1621C22.478 45.5833 21.7808 45.2939 20.9513 45.2939ZM34.5784 46.1074L33.8196 46.5791C33.1633 45.7087 32.2678 45.2734 31.133 45.2734C30.2261 45.2734 29.4719 45.5651 28.8704 46.1484C28.2733 46.7318 27.9748 47.4404 27.9748 48.2744C27.9748 48.8167 28.1116 49.3271 28.385 49.8057C28.663 50.2842 29.0413 50.6556 29.5198 50.9199C30.0028 51.1842 30.5429 51.3164 31.1399 51.3164C32.2336 51.3164 33.1269 50.8812 33.8196 50.0107L34.5784 50.5098C34.2229 51.043 33.7444 51.4577 33.1428 51.7539C32.5458 52.0456 31.8645 52.1914 31.0989 52.1914C29.9231 52.1914 28.9478 51.8177 28.1731 51.0703C27.3983 50.3229 27.011 49.4137 27.011 48.3428C27.011 47.6227 27.191 46.9551 27.551 46.3398C27.9156 45.7201 28.4146 45.237 29.0481 44.8906C29.6815 44.5443 30.3902 44.3711 31.1741 44.3711C31.6663 44.3711 32.1402 44.4463 32.5959 44.5967C33.0562 44.7471 33.4459 44.943 33.7649 45.1846C34.0839 45.4261 34.3551 45.7337 34.5784 46.1074ZM36.0101 44.5625H40.9046V45.3896H38.9359V52H37.972V45.3896H36.0101V44.5625ZM43.5805 44.5625V50.0654L49.0424 44.5625H49.1176V52H48.1605V46.5449L42.7396 52H42.6234V44.5625H43.5805ZM57.9321 49.5322L58.7388 49.9561C58.4744 50.4756 58.1691 50.8949 57.8227 51.2139C57.4764 51.5329 57.0867 51.7767 56.6538 51.9453C56.2208 52.1094 55.7309 52.1914 55.1841 52.1914C53.9718 52.1914 53.0239 51.7949 52.3403 51.002C51.6567 50.2044 51.3149 49.3044 51.3149 48.3018C51.3149 47.3584 51.6043 46.5176 52.1831 45.7793C52.9168 44.8405 53.8989 44.3711 55.1294 44.3711C56.3963 44.3711 57.408 44.8519 58.1645 45.8135C58.7023 46.4925 58.9757 47.3402 58.9848 48.3564H52.2993C52.3175 49.2223 52.5932 49.9333 53.1264 50.4893C53.6596 51.0407 54.3182 51.3164 55.102 51.3164C55.4803 51.3164 55.8471 51.2503 56.2026 51.1182C56.5626 50.986 56.868 50.8105 57.1186 50.5918C57.3693 50.373 57.6404 50.0199 57.9321 49.5322ZM57.9321 47.5293C57.8045 47.0189 57.6177 46.611 57.3716 46.3057C57.13 46.0003 56.8087 45.7542 56.4077 45.5674C56.0067 45.3805 55.5851 45.2871 55.143 45.2871C54.4139 45.2871 53.7873 45.5218 53.2632 45.9912C52.8804 46.333 52.591 46.8457 52.395 47.5293H57.9321ZM67.6588 52H65.4987V44.5625H67.6246C68.4358 44.5625 69.0192 44.7493 69.3746 45.123C69.7347 45.4967 69.9147 45.9342 69.9147 46.4355C69.9147 47.1921 69.582 47.7048 68.9166 47.9736C69.8828 48.3154 70.3659 48.974 70.3659 49.9492C70.3659 51.3164 69.4635 52 67.6588 52ZM66.4625 45.3896V47.7139H67.0846C67.6497 47.7139 68.0189 47.6911 68.192 47.6455C68.3652 47.5999 68.527 47.4883 68.6774 47.3105C68.8323 47.1283 68.9098 46.889 68.9098 46.5928C68.9098 46.2829 68.8301 46.0231 68.6705 45.8135C68.511 45.6038 68.3424 45.4808 68.1647 45.4443C67.9915 45.4079 67.6315 45.3896 67.0846 45.3896H66.4625ZM66.4625 48.5889V51.1934H67.4879C67.971 51.1934 68.3151 51.1637 68.5202 51.1045C68.7298 51.0407 68.9075 50.9062 69.0534 50.7012C69.2038 50.4961 69.2789 50.2363 69.2789 49.9219C69.2789 49.5163 69.1513 49.1927 68.8961 48.9512C68.6409 48.7096 68.3037 48.5889 67.8844 48.5889H66.4625ZM84.8436 44.5625H85.117L87.6395 52H86.6414L84.8025 46.5244L81.9451 52H81.7674L78.9031 46.5244L77.0711 52H76.073L78.6092 44.5625H78.8689L81.8631 50.3799L84.8436 44.5625ZM96.9052 44.5625V52H95.9618V50.7217C95.5608 51.2093 95.1096 51.5762 94.6083 51.8223C94.1115 52.0684 93.5669 52.1914 92.9745 52.1914C91.9218 52.1914 91.0217 51.8109 90.2743 51.0498C89.5315 50.2842 89.16 49.3545 89.16 48.2607C89.16 47.1898 89.536 46.2738 90.288 45.5127C91.0399 44.7516 91.9445 44.3711 93.0018 44.3711C93.6125 44.3711 94.1639 44.501 94.6561 44.7607C95.1529 45.0205 95.5881 45.4102 95.9618 45.9297V44.5625H96.9052ZM93.077 45.2939C92.5438 45.2939 92.0516 45.4261 91.6005 45.6904C91.1493 45.9502 90.7893 46.3171 90.5204 46.791C90.2561 47.265 90.1239 47.7663 90.1239 48.2949C90.1239 48.819 90.2583 49.3203 90.5272 49.7988C90.7961 50.2773 91.1561 50.651 91.6073 50.9199C92.063 51.1842 92.5507 51.3164 93.0702 51.3164C93.5943 51.3164 94.091 51.1842 94.5604 50.9199C95.0298 50.6556 95.3899 50.2979 95.6405 49.8467C95.8957 49.3955 96.0233 48.8874 96.0233 48.3223C96.0233 47.4609 95.7385 46.7409 95.1688 46.1621C94.6037 45.5833 93.9065 45.2939 93.077 45.2939ZM99.499 44.5625H100.449V45.9297C100.827 45.4102 101.263 45.0205 101.755 44.7607C102.247 44.501 102.796 44.3711 103.402 44.3711C104.46 44.3711 105.364 44.7516 106.116 45.5127C106.868 46.2738 107.244 47.1898 107.244 48.2607C107.244 49.3545 106.87 50.2842 106.123 51.0498C105.38 51.8109 104.482 52.1914 103.43 52.1914C102.837 52.1914 102.293 52.0684 101.796 51.8223C101.299 51.5762 100.85 51.2093 100.449 50.7217V54.7207H99.499V44.5625ZM103.327 45.2939C102.498 45.2939 101.798 45.5833 101.228 46.1621C100.663 46.7409 100.381 47.4609 100.381 48.3223C100.381 48.8874 100.506 49.3955 100.757 49.8467C101.012 50.2979 101.374 50.6556 101.844 50.9199C102.318 51.1842 102.817 51.3164 103.341 51.3164C103.856 51.3164 104.339 51.1842 104.79 50.9199C105.246 50.651 105.608 50.2773 105.877 49.7988C106.146 49.3203 106.28 48.819 106.28 48.2949C106.28 47.7663 106.146 47.265 105.877 46.791C105.613 46.3171 105.255 45.9502 104.804 45.6904C104.353 45.4261 103.86 45.2939 103.327 45.2939ZM116.872 44.5625V52H115.929V50.7217C115.528 51.2093 115.077 51.5762 114.575 51.8223C114.078 52.0684 113.534 52.1914 112.941 52.1914C111.889 52.1914 110.989 51.8109 110.241 51.0498C109.498 50.2842 109.127 49.3545 109.127 48.2607C109.127 47.1898 109.503 46.2738 110.255 45.5127C111.007 44.7516 111.911 44.3711 112.969 44.3711C113.579 44.3711 114.131 44.501 114.623 44.7607C115.12 45.0205 115.555 45.4102 115.929 45.9297V44.5625H116.872ZM113.044 45.2939C112.511 45.2939 112.019 45.4261 111.567 45.6904C111.116 45.9502 110.756 46.3171 110.487 46.791C110.223 47.265 110.091 47.7663 110.091 48.2949C110.091 48.819 110.225 49.3203 110.494 49.7988C110.763 50.2773 111.123 50.651 111.574 50.9199C112.03 51.1842 112.518 51.3164 113.037 51.3164C113.561 51.3164 114.058 51.1842 114.527 50.9199C114.997 50.6556 115.357 50.2979 115.607 49.8467C115.863 49.3955 115.99 48.8874 115.99 48.3223C115.99 47.4609 115.705 46.7409 115.136 46.1621C114.571 45.5833 113.873 45.2939 113.044 45.2939ZM125.488 41.6914H126.439V45.6836C127.036 44.8359 127.895 44.4121 129.016 44.4121C130.096 44.4121 131 44.779 131.73 45.5127C132.463 46.2464 132.83 47.1875 132.83 48.3359C132.83 49.4707 132.461 50.4027 131.723 51.1318C130.984 51.861 130.091 52.2256 129.043 52.2256C127.895 52.2256 127.026 51.779 126.439 50.8857V54.7207H125.488V50.8857C124.91 51.7835 124.035 52.2324 122.863 52.2324C121.833 52.2324 120.947 51.8678 120.204 51.1387C119.466 50.4095 119.097 49.4753 119.097 48.3359C119.097 47.1875 119.461 46.2464 120.191 45.5127C120.924 44.779 121.831 44.4121 122.911 44.4121C124.055 44.4121 124.914 44.8359 125.488 45.6836V41.6914ZM126.411 48.459C126.411 49.3477 126.664 50.0449 127.17 50.5508C127.676 51.0566 128.257 51.3096 128.913 51.3096C129.806 51.3096 130.522 51.0133 131.06 50.4209C131.597 49.8285 131.866 49.1152 131.866 48.2812C131.866 47.4199 131.581 46.7044 131.012 46.1348C130.447 45.5651 129.768 45.2803 128.975 45.2803C128.259 45.2803 127.653 45.5355 127.156 46.0459C126.66 46.5518 126.411 47.3561 126.411 48.459ZM120.061 48.2881C120.061 49.1175 120.327 49.8285 120.86 50.4209C121.398 51.0133 122.116 51.3096 123.014 51.3096C123.324 51.3096 123.656 51.2321 124.012 51.0771C124.367 50.9176 124.652 50.7194 124.866 50.4824C125.085 50.2409 125.249 49.9629 125.359 49.6484C125.468 49.334 125.523 48.8737 125.523 48.2676C125.523 47.3014 125.272 46.5632 124.771 46.0527C124.269 45.5378 123.663 45.2803 122.952 45.2803C122.155 45.2803 121.473 45.5651 120.908 46.1348C120.343 46.7044 120.061 47.4222 120.061 48.2881ZM138.541 44.3711C139.685 44.3711 140.633 44.7858 141.385 45.6152C142.069 46.3717 142.41 47.2673 142.41 48.3018C142.41 49.3408 142.048 50.25 141.323 51.0293C140.603 51.804 139.676 52.1914 138.541 52.1914C137.402 52.1914 136.47 51.804 135.745 51.0293C135.025 50.25 134.665 49.3408 134.665 48.3018C134.665 47.2718 135.007 46.3786 135.691 45.6221C136.443 44.7881 137.393 44.3711 138.541 44.3711ZM138.541 45.3076C137.748 45.3076 137.067 45.6016 136.497 46.1895C135.928 46.7773 135.643 47.4883 135.643 48.3223C135.643 48.86 135.773 49.3613 136.032 49.8262C136.292 50.291 136.643 50.651 137.085 50.9062C137.527 51.1569 138.013 51.2822 138.541 51.2822C139.07 51.2822 139.555 51.1569 139.997 50.9062C140.439 50.651 140.79 50.291 141.05 49.8262C141.31 49.3613 141.44 48.86 141.44 48.3223C141.44 47.4883 141.153 46.7773 140.578 46.1895C140.009 45.6016 139.33 45.3076 138.541 45.3076ZM149.899 48.418H145.578V52H144.615V44.5625H145.578V47.5156H149.899V44.5625H150.856V52H149.899V48.418ZM159.677 49.5322L160.484 49.9561C160.219 50.4756 159.914 50.8949 159.568 51.2139C159.221 51.5329 158.832 51.7767 158.399 51.9453C157.966 52.1094 157.476 52.1914 156.929 52.1914C155.717 52.1914 154.769 51.7949 154.085 51.002C153.402 50.2044 153.06 49.3044 153.06 48.3018C153.06 47.3584 153.349 46.5176 153.928 45.7793C154.662 44.8405 155.644 44.3711 156.874 44.3711C158.141 44.3711 159.153 44.8519 159.91 45.8135C160.447 46.4925 160.721 47.3402 160.73 48.3564L154.044 48.3564C154.063 49.2223 154.338 49.9333 154.871 50.4893C155.405 51.0407 156.063 51.3164 156.847 51.3164C157.225 51.3164 157.592 51.2503 157.948 51.1182C158.308 50.986 158.613 50.8105 158.864 50.5918C159.114 50.373 159.385 50.0199 159.677 49.5322ZM159.677 47.5293C159.55 47.0189 159.363 46.611 159.117 46.3057C158.875 46.0003 158.554 45.7542 158.153 45.5674C157.752 45.3805 157.33 45.2871 156.888 45.2871C156.159 45.2871 155.532 45.5218 155.008 45.9912C154.625 46.333 154.336 46.8457 154.14 47.5293H159.677ZM8.47656 62.5625V70H7.5332V68.7217C7.13216 69.2093 6.68099 69.5762 6.17969 69.8223C5.68294 70.0684 5.13835 70.1914 4.5459 70.1914C3.49316 70.1914 2.5931 69.8109 1.8457 69.0498C1.10286 68.2842 0.731445 67.3545 0.731445 66.2607C0.731445 65.1898 1.10742 64.2738 1.85937 63.5127C2.61133 62.7516 3.51595 62.3711 4.57324 62.3711C5.18392 62.3711 5.73535 62.501 6.22754 62.7607C6.72428 63.0205 7.15951 63.4102 7.5332 63.9297V62.5625H8.47656ZM4.64844 63.2939C4.11523 63.2939 3.62305 63.4261 3.17187 63.6904C2.7207 63.9502 2.36068 64.3171 2.0918 64.791C1.82747 65.265 1.69531 65.7663 1.69531 66.2949C1.69531 66.819 1.82975 67.3203 2.09863 67.7988C2.36751 68.2773 2.72754 68.651 3.17871 68.9199C3.63444 69.1842 4.12207 69.3164 4.6416 69.3164C5.16569 69.3164 5.66243 69.1842 6.13184 68.9199C6.60124 68.6556 6.96126 68.2979 7.21191 67.8467C7.46712 67.3955 7.59473 66.8874 7.59473 66.3223C7.59473 65.4609 7.3099 64.7409 6.74023 64.1621C6.17513 63.5833 5.47786 63.2939 4.64844 63.2939ZM18.1729 59.5342V60.4502C17.7172 60.5277 16.9356 60.5824 15.8282 60.6143C15.0261 60.6416 14.4063 60.6963 13.9688 60.7783C13.5359 60.8558 13.1576 61.0085 12.8341 61.2363C12.5105 61.4596 12.2371 61.8014 12.0138 62.2617C11.795 62.7174 11.6583 63.2279 11.6036 63.793L11.5079 64.8389C11.7677 63.9867 12.1938 63.3623 12.7862 62.9658C13.3832 62.5693 14.044 62.3711 14.7686 62.3711C15.8715 62.3711 16.7921 62.7585 17.5304 63.5332C18.2732 64.3079 18.6446 65.2308 18.6446 66.3018C18.6446 67.3636 18.2755 68.2773 17.5372 69.043C16.7989 69.8086 15.8761 70.1914 14.7686 70.1914C13.6339 70.1914 12.6723 69.7676 11.8839 68.9199C11.0955 68.0723 10.7013 66.737 10.7013 64.9141C10.7013 63.6426 10.8448 62.681 11.1319 62.0293C11.4236 61.373 11.7563 60.9014 12.13 60.6143C12.5037 60.3271 12.9867 60.1016 13.5792 59.9375C14.1716 59.7734 15.2813 59.6709 16.9083 59.6299C17.4096 59.6162 17.8311 59.5843 18.1729 59.5342ZM17.6739 66.3223C17.6739 65.4974 17.3868 64.7887 16.8126 64.1963C16.2384 63.6038 15.557 63.3076 14.7686 63.3076C13.9848 63.3076 13.3057 63.6038 12.7315 64.1963C12.1573 64.7887 11.8702 65.4974 11.8702 66.3223C11.8702 67.1426 12.1459 67.8421 12.6973 68.4209C13.2533 68.9951 13.9438 69.2822 14.7686 69.2822C15.5981 69.2822 16.2885 68.9951 16.8399 68.4209C17.3959 67.8421 17.6739 67.1426 17.6739 66.3223ZM28.0607 64.1074L27.3019 64.5791C26.6457 63.7087 25.7502 63.2734 24.6154 63.2734C23.7085 63.2734 22.9543 63.5651 22.3527 64.1484C21.7557 64.7318 21.4572 65.4404 21.4572 66.2744C21.4572 66.8167 21.5939 67.3271 21.8673 67.8057C22.1453 68.2842 22.5236 68.6556 23.0021 68.9199C23.4852 69.1842 24.0252 69.3164 24.6222 69.3164C25.716 69.3164 26.6092 68.8812 27.3019 68.0107L28.0607 68.5098C27.7052 69.043 27.2267 69.4577 26.6252 69.7539C26.0282 70.0456 25.3468 70.1914 24.5812 70.1914C23.4054 70.1914 22.4302 69.8177 21.6554 69.0703C20.8807 68.3229 20.4933 67.4137 20.4933 66.3428C20.4933 65.6227 20.6733 64.9551 21.0334 64.3398C21.3979 63.7201 21.897 63.237 22.5304 62.8906C23.1639 62.5443 23.8726 62.3711 24.6564 62.3711C25.1486 62.3711 25.6226 62.4463 26.0783 62.5967C26.5386 62.7471 26.9282 62.943 27.2472 63.1846C27.5662 63.4261 27.8374 63.7337 28.0607 64.1074ZM33.8469 62.3711C34.9908 62.3711 35.9387 62.7858 36.6907 63.6152C37.3743 64.3717 37.7161 65.2673 37.7161 66.3018C37.7161 67.3408 37.3538 68.25 36.6291 69.0293C35.9091 69.804 34.9817 70.1914 33.8469 70.1914C32.7076 70.1914 31.7756 69.804 31.051 69.0293C30.331 68.25 29.9709 67.3408 29.9709 66.3018C29.9709 65.2718 30.3127 64.3786 30.9963 63.6221C31.7483 62.7881 32.6985 62.3711 33.8469 62.3711ZM33.8469 63.3076C33.0539 63.3076 32.3726 63.6016 31.803 64.1895C31.2333 64.7773 30.9485 65.4883 30.9485 66.3223C30.9485 66.86 31.0784 67.3613 31.3381 67.8262C31.5979 68.291 31.9488 68.651 32.3909 68.9062C32.8329 69.1569 33.3183 69.2822 33.8469 69.2822C34.3756 69.2822 34.8609 69.1569 35.303 68.9062C35.745 68.651 36.0959 68.291 36.3557 67.8262C36.6155 67.3613 36.7454 66.86 36.7454 66.3223C36.7454 65.4883 36.4582 64.7773 35.884 64.1895C35.3144 63.6016 34.6353 63.3076 33.8469 63.3076ZM46.2161 70H45.1976L42.7093 64.5859L40.2415 70H39.2161L42.6204 62.5625H42.7913L46.2161 70ZM49.0766 70H48.1127V62.5625H49.0766V65.6865H50.3207C50.4893 64.693 50.9314 63.8932 51.6469 63.2871C52.3669 62.6764 53.2032 62.3711 54.1557 62.3711C55.2585 62.3711 56.1791 62.7585 56.9174 63.5332C57.6602 64.3079 58.0316 65.2308 58.0316 66.3018C58.0316 67.3636 57.6625 68.2773 56.9242 69.043C56.1859 69.8086 55.2654 70.1914 54.1625 70.1914C53.1781 70.1914 52.3168 69.8701 51.5785 69.2275C50.8448 68.5804 50.4255 67.7145 50.3207 66.6299H49.0766V70ZM57.0609 66.3223C57.0609 65.4974 56.7738 64.7887 56.1996 64.1963C55.6254 63.6038 54.9464 63.3076 54.1625 63.3076C53.3741 63.3076 52.6928 63.6038 52.1186 64.1963C51.5443 64.7887 51.2572 65.4974 51.2572 66.3223C51.2572 67.1426 51.5307 67.8421 52.0775 68.4209C52.629 68.9951 53.324 69.2822 54.1625 69.2822C54.9874 69.2822 55.6755 68.9951 56.227 68.4209C56.7829 67.8421 57.0609 67.1426 57.0609 66.3223ZM59.395 62.5625H64.2895V63.3896H62.3208V70H61.3569V63.3896H59.395V62.5625ZM71.2925 66.418H66.9722V70H66.0084V62.5625H66.9722V65.5156H71.2925V62.5625H72.2496V70H71.2925V66.418ZM78.3297 62.3711C79.4736 62.3711 80.4215 62.7858 81.1735 63.6152C81.8571 64.3717 82.1989 65.2673 82.1989 66.3018C82.1989 67.3408 81.8366 68.25 81.112 69.0293C80.3919 69.804 79.4645 70.1914 78.3297 70.1914C77.1904 70.1914 76.2584 69.804 75.5338 69.0293C74.8138 68.25 74.4538 67.3408 74.4538 66.3018C74.4538 65.2718 74.7955 64.3786 75.4791 63.6221C76.2311 62.7881 77.1813 62.3711 78.3297 62.3711ZM78.3297 63.3076C77.5368 63.3076 76.8554 63.6016 76.2858 64.1895C75.7161 64.7773 75.4313 65.4883 75.4313 66.3223C75.4313 66.86 75.5612 67.3613 75.8209 67.8262C76.0807 68.291 76.4316 68.651 76.8737 68.9062C77.3157 69.1569 77.8011 69.2822 78.3297 69.2822C78.8584 69.2822 79.3437 69.1569 79.7858 68.9062C80.2278 68.651 80.5788 68.291 80.8385 67.8262C81.0983 67.3613 81.2282 66.86 81.2282 66.3223C81.2282 65.4883 80.9411 64.7773 80.3668 64.1895C79.7972 63.6016 79.1181 63.3076 78.3297 63.3076ZM96.2674 58.7866V60.6763C95.6961 60.7397 95.1419 60.7739 94.6048 60.7788C93.6282 60.7886 92.8934 60.8325 92.4002 60.9106C91.907 60.9839 91.4725 61.1597 91.0965 61.438C90.7205 61.7114 90.4544 62.0288 90.2981 62.3901C90.1419 62.7466 90.0467 63.2617 90.0125 63.9355C90.5887 62.5537 91.5774 61.8628 92.9788 61.8628C94.0091 61.8628 94.9002 62.2412 95.6521 62.998C96.409 63.75 96.7874 64.7217 96.7874 65.9131C96.7874 67.1436 96.3821 68.1665 95.5716 68.9819C94.761 69.7974 93.7601 70.2051 92.5686 70.2051C91.597 70.2051 90.74 69.9072 89.9978 69.3115C89.2605 68.7158 88.7869 68.0078 88.577 67.1875C88.367 66.3623 88.262 65.4834 88.262 64.5508C88.262 63.3545 88.4109 62.3828 88.7088 61.6357C89.0066 60.8838 89.3973 60.3198 89.8807 59.9438C90.3689 59.5679 90.9329 59.3164 91.5726 59.1895C92.2122 59.0625 93.1521 58.9722 94.3924 58.9185C95.2322 58.8794 95.8572 58.8354 96.2674 58.7866ZM94.7659 66.0156C94.7659 65.3516 94.5657 64.8022 94.1653 64.3677C93.7698 63.9282 93.2449 63.7085 92.5906 63.7085C91.9656 63.7085 91.448 63.9282 91.0379 64.3677C90.6277 64.8071 90.4227 65.3564 90.4227 66.0156C90.4227 66.709 90.6253 67.2705 91.0306 67.7002C91.4407 68.125 91.9583 68.3374 92.5833 68.3374C93.1985 68.3374 93.7161 68.125 94.136 67.7002C94.556 67.2705 94.7659 66.709 94.7659 66.0156ZM106.869 66.5942H100.445C100.538 67.1606 100.785 67.6123 101.185 67.9492C101.59 68.2812 102.106 68.4473 102.731 68.4473C103.478 68.4473 104.12 68.186 104.657 67.6636L106.341 68.4546C105.921 69.0503 105.419 69.4922 104.833 69.7803C104.247 70.0635 103.551 70.2051 102.745 70.2051C101.495 70.2051 100.477 69.812 99.691 69.0259C98.9049 68.2349 98.5118 67.2461 98.5118 66.0596C98.5118 64.8438 98.9024 63.8354 99.6837 63.0347C100.47 62.229 101.454 61.8262 102.635 61.8262C103.89 61.8262 104.911 62.229 105.697 63.0347C106.483 63.8354 106.876 64.895 106.876 66.2134L106.869 66.5942ZM104.862 65.0195C104.73 64.5752 104.469 64.2139 104.078 63.9355C103.692 63.6572 103.243 63.5181 102.731 63.5181C102.174 63.5181 101.686 63.6743 101.266 63.9868C101.002 64.1821 100.758 64.5264 100.533 65.0195H104.862ZM116.745 63.6426L115.082 64.5581C114.77 64.231 114.46 64.0039 114.152 63.877C113.85 63.75 113.493 63.6865 113.083 63.6865C112.336 63.6865 111.73 63.9111 111.267 64.3604C110.808 64.8047 110.578 65.376 110.578 66.0742C110.578 66.7529 110.8 67.3071 111.245 67.7368C111.689 68.1665 112.272 68.3813 112.995 68.3813C113.889 68.3813 114.584 68.0762 115.082 67.4658L116.657 68.5425C115.803 69.6509 114.597 70.2051 113.039 70.2051C111.638 70.2051 110.539 69.79 109.743 68.96C108.952 68.1299 108.557 67.1582 108.557 66.0449C108.557 65.2734 108.749 64.563 109.135 63.9136C109.521 63.2642 110.058 62.7539 110.746 62.3828C111.44 62.0117 112.214 61.8262 113.068 61.8262C113.859 61.8262 114.57 61.9849 115.2 62.3022C115.829 62.6147 116.345 63.0615 116.745 63.6426ZM121.004 70H118.997V62.0312H125.984V70H123.977V63.9575H121.004V70ZM135.582 70H133.546L131.554 64.9683L129.525 70H127.496L130.895 62.0312H132.184L135.582 70ZM142.975 62.0312H144.968V70H142.975V69.1577C142.585 69.5288 142.192 69.7974 141.796 69.9634C141.406 70.1245 140.981 70.2051 140.522 70.2051C139.492 70.2051 138.6 69.8071 137.848 69.0112C137.096 68.2104 136.721 67.2168 136.721 66.0303C136.721 64.7998 137.084 63.7915 137.812 63.0054C138.539 62.2192 139.423 61.8262 140.463 61.8262C140.942 61.8262 141.391 61.9165 141.811 62.0972C142.231 62.2778 142.619 62.5488 142.975 62.9102V62.0312ZM140.873 63.6719C140.253 63.6719 139.738 63.8916 139.328 64.3311C138.918 64.7656 138.713 65.3247 138.713 66.0083C138.713 66.6968 138.92 67.2632 139.335 67.7075C139.755 68.1519 140.27 68.374 140.881 68.374C141.511 68.374 142.033 68.1567 142.448 67.7222C142.863 67.2827 143.071 66.709 143.071 66.001C143.071 65.3076 142.863 64.7461 142.448 64.3164C142.033 63.8867 141.508 63.6719 140.873 63.6719ZM146.729 62.0312H154.155V63.9355H151.511V70H149.504V63.9355H146.729V62.0312ZM157.916 64.9023H160.89V62.0312H162.896V70H160.89V66.6968H157.916V70H155.909V62.0312H157.916V64.9023ZM169.118 61.8262C169.87 61.8262 170.575 62.0142 171.235 62.3901C171.899 62.7661 172.416 63.2764 172.787 63.9209C173.158 64.5654 173.344 65.2612 173.344 66.0083C173.344 66.7603 173.156 67.4634 172.78 68.1177C172.409 68.772 171.901 69.2847 171.257 69.6558C170.612 70.022 169.902 70.2051 169.125 70.2051C167.983 70.2051 167.006 69.7998 166.196 68.9893C165.39 68.1738 164.987 67.1851 164.987 66.0229C164.987 64.7778 165.444 63.7402 166.357 62.9102C167.157 62.1875 168.078 61.8262 169.118 61.8262ZM169.147 63.7085C168.527 63.7085 168.009 63.9258 167.594 64.3604C167.184 64.79 166.979 65.3418 166.979 66.0156C166.979 66.709 167.182 67.2705 167.587 67.7002C167.997 68.1299 168.515 68.3447 169.14 68.3447C169.765 68.3447 170.285 68.1274 170.7 67.6929C171.115 67.2583 171.322 66.6992 171.322 66.0156C171.322 65.332 171.117 64.7778 170.707 64.353C170.302 63.9233 169.782 63.7085 169.147 63.7085Z" fill="white"/>
<rect x="154.721" y="0.324571" width="71.0081" height="22.7706" rx="11.3853" transform="rotate(21.6392 154.721 0.324571)" stroke="white" stroke-width="0.5"/>
<path d="M160.656 12.8572C160.928 12.8528 161.213 12.8395 161.511 12.8173C161.819 12.7903 162.123 12.752 162.423 12.7024C162.725 12.6448 163.017 12.5784 163.298 12.5032C163.591 12.4231 163.862 12.3253 164.113 12.21L165.37 12.7068L162.06 21.0856L160.258 20.3739L162.642 14.3406C162.336 14.4063 162.008 14.4487 161.655 14.4679C161.306 14.4791 160.971 14.4773 160.651 14.4626L160.656 12.8572ZM169.749 21.2719C169.841 21.0382 169.87 20.8119 169.835 20.5932C169.804 20.3664 169.683 20.1416 169.473 19.9188C169.263 19.696 168.953 19.4664 168.543 19.2299C168.133 18.9935 167.598 18.7447 166.937 18.4836C167.322 17.769 167.695 17.0359 168.057 16.2844C168.419 15.5329 168.75 14.825 169.05 14.1606L173.584 15.9519L172.987 17.4633L169.964 16.2691C169.834 16.5529 169.702 16.827 169.569 17.0915C169.448 17.3511 169.336 17.5769 169.232 17.7689C170.377 18.3144 171.134 18.9349 171.502 19.6301C171.881 20.3206 171.906 21.0849 171.574 21.9232C171.422 22.3101 171.211 22.6417 170.944 22.9181C170.676 23.1944 170.358 23.3993 169.988 23.5329C169.618 23.6664 169.197 23.7189 168.724 23.6903C168.258 23.665 167.748 23.5424 167.192 23.3227C166.974 23.2367 166.751 23.1298 166.521 23.002C166.297 22.8855 166.082 22.7585 165.875 22.6209C165.674 22.4947 165.494 22.3723 165.335 22.2539C165.177 22.1355 165.059 22.033 164.982 21.9464L165.896 20.5882C166.062 20.7565 166.293 20.9502 166.589 21.1695C166.887 21.3806 167.266 21.577 167.726 21.7585C168.282 21.9782 168.728 22.0286 169.064 21.9097C169.403 21.7828 169.631 21.5702 169.749 21.2719ZM183.042 24.5111C182.485 25.9216 181.787 26.8991 180.947 27.4434C180.119 27.9828 179.234 28.0663 178.291 27.6937C177.348 27.3211 176.754 26.6533 176.51 25.6903C176.278 24.7225 176.44 23.5333 176.997 22.1227C177.274 21.4214 177.588 20.8279 177.938 20.342C178.297 19.8592 178.682 19.485 179.095 19.2193C179.507 18.9536 179.937 18.7973 180.384 18.7504C180.831 18.7034 181.285 18.7707 181.744 18.9522C182.687 19.3248 183.275 19.995 183.508 20.9628C183.752 21.9258 183.597 23.1086 183.042 24.5111ZM181.205 23.785C181.37 23.3659 181.5 22.9791 181.593 22.6246C181.69 22.2621 181.743 21.9384 181.753 21.6535C181.763 21.3686 181.719 21.1274 181.62 20.9298C181.521 20.7323 181.358 20.5889 181.133 20.4998C180.907 20.4106 180.691 20.4043 180.483 20.4808C180.284 20.5605 180.087 20.7062 179.891 20.9179C179.704 21.1327 179.522 21.4055 179.344 21.7361C179.17 22.0588 179 22.4296 178.835 22.8488C178.669 23.2679 178.538 23.6587 178.442 24.0213C178.345 24.3838 178.292 24.7075 178.282 24.9924C178.28 25.2805 178.324 25.5217 178.415 25.716C178.514 25.9136 178.676 26.0569 178.902 26.1461C179.128 26.2353 179.344 26.2416 179.551 26.1651C179.759 26.0885 179.956 25.9429 180.143 25.728C180.331 25.5132 180.513 25.2404 180.69 24.9097C180.868 24.5791 181.039 24.2042 181.205 23.785ZM190.277 27.3693C189.72 28.7799 189.021 29.7573 188.182 30.3016C187.354 30.8411 186.468 30.9245 185.525 30.5519C184.582 30.1793 183.989 29.5115 183.745 28.5486C183.512 27.5807 183.674 26.3915 184.232 24.9809C184.509 24.2797 184.822 23.6861 185.173 23.2002C185.531 22.7174 185.917 22.3432 186.329 22.0775C186.742 21.8119 187.172 21.6555 187.619 21.6086C188.066 21.5616 188.519 21.6289 188.979 21.8104C189.922 22.183 190.51 22.8532 190.742 23.8211C190.986 24.784 190.831 25.9668 190.277 27.3693ZM188.439 26.6432C188.605 26.2241 188.734 25.8373 188.828 25.4828C188.924 25.1203 188.978 24.7966 188.988 24.5117C188.998 24.2268 188.953 23.9856 188.854 23.788C188.755 23.5905 188.593 23.4472 188.367 23.358C188.142 23.2688 187.925 23.2625 187.718 23.339C187.519 23.4187 187.321 23.5644 187.126 23.7761C186.938 23.9909 186.756 24.2637 186.579 24.5943C186.405 24.917 186.235 25.2878 186.069 25.707C185.904 26.1261 185.773 26.517 185.676 26.8795C185.579 27.242 185.526 27.5657 185.516 27.8506C185.514 28.1387 185.559 28.3799 185.649 28.5743C185.748 28.7718 185.911 28.9151 186.137 29.0043C186.362 29.0935 186.579 29.0998 186.786 29.0233C186.993 28.9467 187.191 28.8011 187.378 28.5862C187.565 28.3714 187.748 28.0986 187.925 27.7679C188.102 27.4373 188.274 27.0624 188.439 26.6432ZM197.511 30.2275C196.954 31.6381 196.256 32.6155 195.416 33.1598C194.588 33.6993 193.703 33.7827 192.76 33.4101C191.817 33.0375 191.223 32.3697 190.979 31.4068C190.747 30.4389 190.909 29.2497 191.466 27.8391C191.743 27.1379 192.057 26.5443 192.407 26.0584C192.766 25.5757 193.151 25.2014 193.564 24.9358C193.976 24.6701 194.406 24.5137 194.853 24.4668C195.3 24.4198 195.754 24.4871 196.213 24.6686C197.156 25.0412 197.744 25.7114 197.977 26.6793C198.221 27.6422 198.066 28.825 197.511 30.2275ZM195.674 29.5014C195.839 29.0823 195.969 28.6955 196.062 28.341C196.159 27.9785 196.212 27.6548 196.222 27.3699C196.232 27.085 196.188 26.8438 196.089 26.6463C195.99 26.4487 195.827 26.3054 195.602 26.2162C195.376 26.127 195.16 26.1207 194.952 26.1972C194.753 26.2769 194.556 26.4226 194.36 26.6343C194.173 26.8491 193.991 27.1219 193.813 27.4526C193.639 27.7752 193.47 28.1461 193.304 28.5652C193.138 28.9843 193.007 29.3752 192.911 29.7377C192.814 30.1002 192.761 30.4239 192.751 30.7088C192.749 30.9969 192.793 31.2381 192.884 31.4325C192.983 31.63 193.145 31.7734 193.371 31.8625C193.597 31.9517 193.813 31.958 194.021 31.8815C194.228 31.805 194.425 31.6593 194.613 31.4444C194.8 31.2296 194.982 30.9568 195.159 30.6262C195.337 30.2955 195.508 29.9206 195.674 29.5014ZM201.04 36.486L199.215 35.7647L201.087 31.0252L198.742 30.0985L199.343 28.5751L205.86 31.1497L205.258 32.6731L202.913 31.7465L201.04 36.486ZM200.28 26.2053L206.797 28.78L206.195 30.3034L199.678 27.7287L200.28 26.2053Z" fill="white"/>
<path d="M156 12L211 35.6894" stroke="#FF0000"/>
</svg>
